<?xml version="1.0" encoding="UTF-8" standalone="no"?>
<!-- Created with Inkscape (http://www.inkscape.org/) -->

<svg
   xmlns:ns0="http://www.iki.fi/pav/software/textext/"
   xmlns:dc="http://purl.org/dc/elements/1.1/"
   xmlns:cc="http://creativecommons.org/ns#"
   xmlns:rdf="http://www.w3.org/1999/02/22-rdf-syntax-ns#"
   xmlns:svg="http://www.w3.org/2000/svg"
   xmlns="http://www.w3.org/2000/svg"
   xmlns:sodipodi="http://sodipodi.sourceforge.net/DTD/sodipodi-0.dtd"
   xmlns:inkscape="http://www.inkscape.org/namespaces/inkscape"
   width="65.499634mm"
   height="46.650768mm"
   viewBox="0 0 232.08531 165.298"
   id="svg2"
   version="1.1"
   inkscape:version="0.91 r13725"
   sodipodi:docname="problemFormulation.svg">
  <sodipodi:namedview
     id="base"
     pagecolor="#ffffff"
     bordercolor="#666666"
     borderopacity="1.0"
     inkscape:pageopacity="0.0"
     inkscape:pageshadow="2"
     inkscape:zoom="1.4"
     inkscape:cx="291.99778"
     inkscape:cy="4.2578183"
     inkscape:document-units="px"
     inkscape:current-layer="layer1"
     showgrid="false"
     inkscape:snap-nodes="true"
     inkscape:snap-bbox="true"
     inkscape:snap-to-guides="false"
     inkscape:bbox-nodes="false"
     inkscape:object-paths="false"
     inkscape:snap-intersection-paths="true"
     inkscape:object-nodes="true"
     inkscape:snap-smooth-nodes="true"
     inkscape:window-width="1855"
     inkscape:window-height="1056"
     inkscape:window-x="65"
     inkscape:window-y="24"
     inkscape:window-maximized="1"
     inkscape:snap-others="false"
     fit-margin-top="0"
     fit-margin-left="0"
     fit-margin-right="0"
     fit-margin-bottom="0" />
  <defs
     id="defs4">
    <inkscape:path-effect
       effect="spiro"
       id="path-effect7887"
       is_visible="true" />
    <marker
       inkscape:stockid="Arrow2Mstart"
       orient="auto"
       refY="0"
       refX="0"
       id="Arrow2Mstart"
       style="overflow:visible"
       inkscape:isstock="true">
      <path
         id="path6997"
         style="fill:#000000;fill-opacity:1;fill-rule:evenodd;stroke:#000000;stroke-width:0.625;stroke-linejoin:round;stroke-opacity:1"
         d="M 8.7185878,4.0337352 -2.2072895,0.01601326 8.7185884,-4.0017078 c -1.7454984,2.3720609 -1.7354408,5.6174519 -6e-7,8.035443 z"
         transform="scale(0.6,0.6)"
         inkscape:connector-curvature="0" />
    </marker>
    <marker
       inkscape:stockid="Arrow1Lstart"
       orient="auto"
       refY="0"
       refX="0"
       id="Arrow1Lstart"
       style="overflow:visible"
       inkscape:isstock="true">
      <path
         id="path4146"
         d="M 0,0 5,-5 -12.5,0 5,5 0,0 Z"
         style="fill:#000000;fill-opacity:1;fill-rule:evenodd;stroke:#000000;stroke-width:1pt;stroke-opacity:1"
         transform="matrix(0.8,0,0,0.8,10,0)"
         inkscape:connector-curvature="0" />
    </marker>
    <marker
       inkscape:stockid="Arrow1Mend"
       orient="auto"
       refY="0"
       refX="0"
       id="Arrow1Mend"
       style="overflow:visible"
       inkscape:isstock="true">
      <path
         id="path4155"
         d="M 0,0 5,-5 -12.5,0 5,5 0,0 Z"
         style="fill:#000000;fill-opacity:1;fill-rule:evenodd;stroke:#000000;stroke-width:1pt;stroke-opacity:1"
         transform="matrix(-0.4,0,0,-0.4,-4,0)"
         inkscape:connector-curvature="0" />
    </marker>
    <marker
       inkscape:stockid="Arrow1Lstart"
       orient="auto"
       refY="0"
       refX="0"
       id="Arrow1Lstart-6"
       style="overflow:visible"
       inkscape:isstock="true">
      <path
         inkscape:connector-curvature="0"
         id="path4146-2"
         d="M 0,0 5,-5 -12.5,0 5,5 0,0 Z"
         style="fill:#000000;fill-opacity:1;fill-rule:evenodd;stroke:#000000;stroke-width:1pt;stroke-opacity:1"
         transform="matrix(0.8,0,0,0.8,10,0)" />
    </marker>
    <marker
       inkscape:stockid="Arrow1Lstart"
       orient="auto"
       refY="0"
       refX="0"
       id="Arrow1Lstart-1"
       style="overflow:visible"
       inkscape:isstock="true">
      <path
         inkscape:connector-curvature="0"
         id="path4146-29"
         d="M 0,0 5,-5 -12.5,0 5,5 0,0 Z"
         style="fill:#000000;fill-opacity:1;fill-rule:evenodd;stroke:#000000;stroke-width:1pt;stroke-opacity:1"
         transform="matrix(0.8,0,0,0.8,10,0)" />
    </marker>
    <marker
       inkscape:stockid="Arrow1Lstart"
       orient="auto"
       refY="0"
       refX="0"
       id="Arrow1Lstart-15"
       style="overflow:visible"
       inkscape:isstock="true">
      <path
         inkscape:connector-curvature="0"
         id="path4146-5"
         d="M 0,0 5,-5 -12.5,0 5,5 0,0 Z"
         style="fill:#000000;fill-opacity:1;fill-rule:evenodd;stroke:#000000;stroke-width:1pt;stroke-opacity:1"
         transform="matrix(0.8,0,0,0.8,10,0)" />
    </marker>
    <marker
       inkscape:stockid="Arrow1Lstart"
       orient="auto"
       refY="0"
       refX="0"
       id="Arrow1Lstart-15-3"
       style="overflow:visible"
       inkscape:isstock="true">
      <path
         inkscape:connector-curvature="0"
         id="path4146-5-6"
         d="M 0,0 5,-5 -12.5,0 5,5 0,0 Z"
         style="fill:#000000;fill-opacity:1;fill-rule:evenodd;stroke:#000000;stroke-width:1pt;stroke-opacity:1"
         transform="matrix(0.8,0,0,0.8,10,0)" />
    </marker>
    <inkscape:path-effect
       effect="spiro"
       id="path-effect7887-2"
       is_visible="true" />
    <inkscape:path-effect
       effect="spiro"
       id="path-effect7887-0"
       is_visible="true" />
    <inkscape:path-effect
       effect="spiro"
       id="path-effect7887-0-3"
       is_visible="true" />
  </defs>
  <metadata
     id="metadata7">
    <rdf:RDF>
      <cc:Work
         rdf:about="">
        <dc:format>image/svg+xml</dc:format>
        <dc:type
           rdf:resource="http://purl.org/dc/dcmitype/StillImage" />
        <dc:title></dc:title>
      </cc:Work>
    </rdf:RDF>
  </metadata>
  <g
     inkscape:label="Layer 1"
     inkscape:groupmode="layer"
     id="layer1"
     transform="translate(-24.792555,-343.3785)">
    <rect
       style="color:#000000;clip-rule:nonzero;display:inline;overflow:visible;visibility:visible;opacity:1;isolation:auto;mix-blend-mode:normal;color-interpolation:sRGB;color-interpolation-filters:linearRGB;solid-color:#000000;solid-opacity:1;fill:#000000;fill-opacity:0.1006289;fill-rule:evenodd;stroke:#000000;stroke-width:1.20000005;stroke-linecap:butt;stroke-linejoin:miter;stroke-miterlimit:8.59499931;stroke-dasharray:none;stroke-dashoffset:0;stroke-opacity:1;color-rendering:auto;image-rendering:auto;shape-rendering:auto;text-rendering:auto;enable-background:accumulate"
       id="rect4136"
       width="211.42857"
       height="151.42857"
       x="44.849304"
       y="356.64792"
       clip-path="none" />
    <path
       style="fill:#ffffff;fill-rule:evenodd;stroke:#000000;stroke-width:1px;stroke-linecap:butt;stroke-linejoin:miter;stroke-opacity:1"
       d="m 112.64688,413.3383 c 11.5556,-8.4871 21.34718,-21.44103 35.35534,-24.49621 10.77705,-2.35048 23.01256,0.31448 32.57742,5.80839 5.7481,3.30161 11.05922,8.77826 12.87945,15.15228 3.13174,10.96658 2.52382,25.31372 -5.05077,33.84011 -8.92421,10.0456 -25.60491,8.59692 -38.89087,10.60661 -24.48452,3.70364 -60.487861,23.11461 -74.246217,2.52538 -4.521001,-6.76563 5.060021,-15.83615 10.101525,-22.22336 7.135863,-9.0406 17.991322,-14.39538 27.274122,-21.2132 z"
       id="path4187"
       inkscape:connector-curvature="0"
       sodipodi:nodetypes="ssssssass"
       clip-path="none" />
    <path
       style="fill:none;fill-rule:evenodd;stroke:#000000;stroke-width:1;stroke-linecap:butt;stroke-linejoin:miter;stroke-miterlimit:4;stroke-dasharray:none;stroke-opacity:1;marker-start:url(#Arrow2Mstart)"
       d="m 159.67584,413.83702 -4.84519,-25.98743 0.12508,0.15471"
       id="path4486-4-7"
       inkscape:connector-curvature="0" />
    <g
       style="font-style:normal;font-variant:normal;font-weight:normal;font-stretch:normal;letter-spacing:normal;word-spacing:normal;text-anchor:start;fill:none;fill-opacity:1;fill-rule:evenodd;stroke:#000000;stroke-linecap:butt;stroke-linejoin:miter;stroke-miterlimit:10.43299961;stroke-dasharray:none;stroke-dashoffset:0;stroke-opacity:1"
       id="content"
       transform="matrix(1,0,0,-1,-38.913817,1135.7779)"
       xml:space="preserve"
       stroke-miterlimit="10.433"
       font-style="normal"
       font-variant="normal"
       font-weight="normal"
       font-stretch="normal"
       font-size-adjust="none"
       letter-spacing="normal"
       word-spacing="normal"
       ns0:text="$\\Gamma$"
       ns0:preamble=""><path
         style="fill:#000000;stroke-width:0"
         inkscape:connector-curvature="0"
         d="m 228.96,713.88 -5.2,0 0,-0.31 0.24,0 c 0.77,0 0.79,-0.11 0.79,-0.47 l 0,-5.2 c 0,-0.36 -0.02,-0.47 -0.79,-0.47 l -0.24,0 0,-0.31 c 0.35,0.04 1.13,0.04 1.52,0.04 0.41,0 1.31,0 1.67,-0.04 l 0,0.31 -0.33,0 c -0.94,0 -0.94,0.13 -0.94,0.48 l 0,5.26 c 0,0.33 0.02,0.4 0.48,0.4 l 1.03,0 c 1.43,0 1.64,-0.58 1.8,-1.92 l 0.25,0 z"
         id="path7501" /></g>    <g
       style="font-style:normal;font-variant:normal;font-weight:normal;font-stretch:normal;letter-spacing:normal;word-spacing:normal;text-anchor:start;fill:none;fill-opacity:1;fill-rule:evenodd;stroke:#000000;stroke-linecap:butt;stroke-linejoin:miter;stroke-miterlimit:10.43299961;stroke-dasharray:none;stroke-dashoffset:0;stroke-opacity:1"
       id="content-5"
       transform="matrix(1,0,0,-1,15.977448,1208.6788)"
       xml:space="preserve"
       stroke-miterlimit="10.433"
       font-style="normal"
       font-variant="normal"
       font-weight="normal"
       font-stretch="normal"
       font-size-adjust="none"
       letter-spacing="normal"
       word-spacing="normal"
       ns0:text="$\\Gamma$"
       ns0:preamble="" />    <g
       style="font-style:normal;font-variant:normal;font-weight:normal;font-stretch:normal;letter-spacing:normal;word-spacing:normal;text-anchor:start;fill:none;fill-opacity:1;fill-rule:evenodd;stroke:#000000;stroke-linecap:butt;stroke-linejoin:miter;stroke-miterlimit:10.43299961;stroke-dasharray:none;stroke-dashoffset:0;stroke-opacity:1"
       id="g7628"
       transform="matrix(1,0,0,-1,20.465794,1207.8516)"
       xml:space="preserve"
       stroke-miterlimit="10.433"
       font-style="normal"
       font-variant="normal"
       font-weight="normal"
       font-stretch="normal"
       font-size-adjust="none"
       letter-spacing="normal"
       word-spacing="normal"
       ns0:text="D"
       ns0:preamble=""><path
         style="fill:#000000;stroke-width:0"
         inkscape:connector-curvature="0"
         d="m 223.78,713.91 0,-0.31 0.24,0 c 0.77,0 0.79,-0.11 0.79,-0.46 l 0,-5.24 c 0,-0.36 -0.02,-0.47 -0.79,-0.47 l -0.24,0 0,-0.31 3.65,0 -0.27,0.31 -1.01,0 c -0.46,0 -0.48,0.07 -0.48,0.4 l 0,5.38 c 0,0.32 0.02,0.39 0.48,0.39 l 1,0 c 0.62,0 1.31,-0.22 1.82,-0.92 0.43,-0.59 0.52,-1.44 0.52,-2.22 0,-1.1 -0.19,-1.7 -0.55,-2.18 -0.2,-0.27 -0.77,-0.85 -1.78,-0.85 l 0.27,-0.31 c 1.68,0 3.05,1.47 3.05,3.34 0,1.89 -1.34,3.45 -3.05,3.45 z"
         id="path7630" /></g>    <g
       id="g7763"
       transform="matrix(1,0,0,-1,-150.31172,1193.3756)"
       xml:space="preserve"
       stroke-miterlimit="10.433"
       font-style="normal"
       font-variant="normal"
       font-weight="normal"
       font-stretch="normal"
       font-size-adjust="none"
       letter-spacing="normal"
       word-spacing="normal"
       ns0:text="$\\Omega_1$"
       ns0:preamble=""
       style="font-style:normal;font-variant:normal;font-weight:normal;font-stretch:normal;letter-spacing:normal;word-spacing:normal;text-anchor:start;fill:none;fill-opacity:1;fill-rule:evenodd;stroke:#000000;stroke-linecap:butt;stroke-linejoin:miter;stroke-miterlimit:10.43299961;stroke-dasharray:none;stroke-dashoffset:0;stroke-opacity:1"><path
         d="m 230.18,708.73 -0.25,0 c -0.05,-0.25 -0.09,-0.48 -0.18,-0.72 -0.05,-0.16 -0.08,-0.24 -0.65,-0.24 l -0.8,0 c 0.13,0.56 0.44,1.03 0.89,1.69 0.46,0.7 0.87,1.39 0.87,2.18 0,1.38 -1.34,2.49 -3.03,2.49 -1.71,0 -3.04,-1.13 -3.04,-2.49 0,-0.79 0.41,-1.48 0.88,-2.18 0.44,-0.66 0.76,-1.13 0.89,-1.69 l -0.8,0 c -0.58,0 -0.61,0.08 -0.66,0.23 -0.08,0.23 -0.13,0.49 -0.18,0.73 l -0.25,0 0.33,-1.61 1.59,0 c 0.22,0 0.25,0 0.25,0.21 0,0.7 -0.3,1.57 -0.53,2.21 -0.21,0.57 -0.49,1.36 -0.49,2.11 0,1.58 1.1,2.26 2,2.26 0.96,0 2.02,-0.71 2.02,-2.26 0,-0.75 -0.27,-1.5 -0.56,-2.32 -0.15,-0.42 -0.47,-1.31 -0.47,-2 0,-0.21 0.03,-0.21 0.26,-0.21 l 1.58,0 z"
         id="path7765"
         inkscape:connector-curvature="0"
         style="fill:#000000;stroke-width:0" /><path
         d="m 232.97,710.05 0,0.01 0,0.01 0,0.01 0,0.01 0,0 0,0.01 0,0.01 0,0.01 0,0 0,0.01 0,0.01 0,0 0,0.01 0,0 -0.01,0.01 0,0 0,0.01 0,0 0,0.01 0,0.01 -0.01,0.01 0,0 0,0.01 -0.01,0.01 0,0 -0.01,0.01 0,0 -0.01,0 -0.01,0.01 -0.01,0 -0.01,0 0,0 -0.01,0 -0.01,0 0,0 -0.01,0.01 0,0 -0.01,0 0,0 -0.01,0 -0.01,0 -0.01,0 0,0 -0.01,0 -0.01,0 -0.01,0 0,0 -0.01,0 -0.01,0 -0.01,0 c -0.45,-0.44 -1.08,-0.45 -1.37,-0.45 l 0,-0.25 c 0.17,0 0.63,0 1.01,0.2 l 0,-3.55 c 0,-0.23 0,-0.32 -0.7,-0.32 l -0.26,0 0,-0.25 c 0.12,0.01 0.98,0.03 1.24,0.03 0.22,0 1.1,-0.02 1.25,-0.03 l 0,0.25 -0.26,0 c -0.7,0 -0.7,0.09 -0.7,0.32 z"
         id="path7767"
         inkscape:connector-curvature="0"
         style="fill:#000000;stroke-width:0" /></g>    <g
       style="font-style:normal;font-variant:normal;font-weight:normal;font-stretch:normal;letter-spacing:normal;word-spacing:normal;text-anchor:start;fill:none;fill-opacity:1;fill-rule:evenodd;stroke:#000000;stroke-linecap:butt;stroke-linejoin:miter;stroke-miterlimit:10.43299961;stroke-dasharray:none;stroke-dashoffset:0;stroke-opacity:1"
       ns0:preamble=""
       ns0:text="$\\Omega_0$"
       word-spacing="normal"
       letter-spacing="normal"
       font-size-adjust="none"
       font-stretch="normal"
       font-weight="normal"
       font-variant="normal"
       font-style="normal"
       stroke-miterlimit="10.433"
       xml:space="preserve"
       transform="matrix(1,0,0,-1,-119.58172,1139.1692)"
       id="g7848"><path
         id="path7850"
         d="m 230.18,708.73 -0.25,0 c -0.05,-0.25 -0.09,-0.48 -0.18,-0.72 -0.05,-0.16 -0.08,-0.24 -0.65,-0.24 l -0.8,0 c 0.13,0.56 0.44,1.03 0.89,1.69 0.46,0.7 0.87,1.39 0.87,2.18 0,1.38 -1.34,2.49 -3.03,2.49 -1.71,0 -3.04,-1.13 -3.04,-2.49 0,-0.79 0.41,-1.48 0.88,-2.18 0.44,-0.66 0.76,-1.13 0.89,-1.69 l -0.8,0 c -0.58,0 -0.61,0.08 -0.66,0.23 -0.08,0.23 -0.13,0.49 -0.18,0.73 l -0.25,0 0.33,-1.61 1.59,0 c 0.22,0 0.25,0 0.25,0.21 0,0.7 -0.3,1.57 -0.53,2.21 -0.21,0.57 -0.49,1.36 -0.49,2.11 0,1.58 1.1,2.26 2,2.26 0.96,0 2.02,-0.71 2.02,-2.26 0,-0.75 -0.27,-1.5 -0.56,-2.32 -0.15,-0.42 -0.47,-1.31 -0.47,-2 0,-0.21 0.03,-0.21 0.26,-0.21 l 1.58,0 z"
         inkscape:connector-curvature="0"
         style="fill:#000000;stroke-width:0" /><path
         id="path7852"
         d="m 234.24,707.85 -0.01,0.14 0,0.14 -0.01,0.13 0,0.12 -0.02,0.13 -0.01,0.12 -0.02,0.11 -0.02,0.11 -0.03,0.11 -0.03,0.11 -0.03,0.1 -0.04,0.1 -0.04,0.1 -0.05,0.09 -0.05,0.1 -0.03,0.04 -0.03,0.05 c -0.21,0.32 -0.65,0.6 -1.21,0.6 l 0,-0.2 c 0.38,0 0.74,-0.23 0.87,-0.63 0.11,-0.38 0.12,-0.88 0.12,-1.48 0,-0.52 0,-1.03 -0.09,-1.47 -0.14,-0.63 -0.62,-0.78 -0.9,-0.78 l 0,0 c -0.32,0 -0.74,0.18 -0.88,0.76 -0.1,0.4 -0.1,0.97 -0.1,1.49 0,0.51 0,1.04 0.1,1.42 0.15,0.55 0.6,0.69 0.88,0.69 l 0,0.2 c -1.62,0 -1.62,-1.9 -1.62,-2.4 0,-0.5 0,-2.36 1.62,-2.36 1.63,0 1.63,1.86 1.63,2.36 z"
         inkscape:connector-curvature="0"
         style="fill:#000000;stroke-width:0" /></g>    <path
       style="fill:#0000ff;fill-rule:evenodd;stroke:#0000ff;stroke-width:1px;stroke-linecap:butt;stroke-linejoin:miter;stroke-opacity:1"
       d="m 44.849304,356.64792 0,151.42856 0,0"
       id="path7885"
       inkscape:path-effect="#path-effect7887"
       inkscape:original-d="m 44.849304,356.64792 c 0,151.42856 0,151.42856 0,151.42856 l 0,0"
       inkscape:connector-curvature="0" />
    <path
       style="fill:#ff9955;fill-rule:evenodd;stroke:#ff9955;stroke-width:1px;stroke-linecap:butt;stroke-linejoin:miter;stroke-opacity:1"
       d="m 256.27789,356.64792 0,151.42856 0,0"
       id="path7885-7"
       inkscape:path-effect="#path-effect7887-2"
       inkscape:original-d="m 256.27789,356.64792 c 0,151.42856 0,151.42856 0,151.42856 l 0,0"
       inkscape:connector-curvature="0" />
    <path
       style="fill:#ff9955;fill-rule:evenodd;stroke:#ff9955;stroke-width:1px;stroke-linecap:butt;stroke-linejoin:miter;stroke-opacity:1"
       d="m 256.27788,356.64792 -211.428575,0 0,0"
       id="path7885-9"
       inkscape:path-effect="#path-effect7887-0"
       inkscape:original-d="m 256.27788,356.64792 c -211.428575,0 -211.428575,0 -211.428575,0 l 0,0"
       inkscape:connector-curvature="0" />
    <path
       style="fill:#000000;fill-opacity:0;fill-rule:evenodd;stroke:#ff9955;stroke-width:1px;stroke-linecap:butt;stroke-linejoin:miter;stroke-opacity:1"
       d="m 256.80786,508.07339 -212.455356,0 0,0"
       id="path7885-9-6"
       inkscape:path-effect="#path-effect7887-0-3"
       inkscape:original-d="m 256.80786,508.07339 c -212.455356,0 -212.455356,0 -212.455356,0 l 0,0"
       inkscape:connector-curvature="0" />
    <g
       id="g7992"
       transform="matrix(1,0,0,-1,-198.96744,1145.8606)"
       xml:space="preserve"
       stroke-miterlimit="10.433"
       font-style="normal"
       font-variant="normal"
       font-weight="normal"
       font-stretch="normal"
       font-size-adjust="none"
       letter-spacing="normal"
       word-spacing="normal"
       ns0:text="$\\Gamma_D$"
       ns0:preamble=""
       style="font-style:normal;font-variant:normal;font-weight:normal;font-stretch:normal;letter-spacing:normal;word-spacing:normal;text-anchor:start;fill:none;fill-opacity:1;fill-rule:evenodd;stroke:#000000;stroke-linecap:butt;stroke-linejoin:miter;stroke-miterlimit:10.43299961;stroke-dasharray:none;stroke-dashoffset:0;stroke-opacity:1"><path
         d="m 228.96,713.88 -5.2,0 0,-0.31 0.24,0 c 0.77,0 0.79,-0.11 0.79,-0.47 l 0,-5.2 c 0,-0.36 -0.02,-0.47 -0.79,-0.47 l -0.24,0 0,-0.31 c 0.35,0.04 1.13,0.04 1.52,0.04 0.41,0 1.31,0 1.67,-0.04 l 0,0.31 -0.33,0 c -0.94,0 -0.94,0.13 -0.94,0.48 l 0,5.26 c 0,0.33 0.02,0.4 0.48,0.4 l 1.03,0 c 1.43,0 1.64,-0.58 1.8,-1.92 l 0.25,0 z"
         id="path7994"
         inkscape:connector-curvature="0"
         style="fill:#000000;stroke-width:0" /><path
         d="m 230.98,706.17 0,-0.02 -0.01,-0.02 0,-0.02 -0.01,-0.02 0,-0.01 -0.01,-0.02 -0.01,-0.02 0,-0.01 -0.01,-0.02 -0.01,-0.01 -0.01,-0.01 0,-0.01 -0.01,-0.01 -0.02,-0.01 -0.01,-0.01 -0.01,-0.01 -0.02,-0.01 -0.02,-0.01 -0.01,0 -0.02,-0.01 -0.03,0 -0.01,-0.01 -0.01,0 -0.01,0 -0.02,0 -0.01,0 -0.02,-0.01 -0.01,0 -0.02,0 -0.01,0 -0.02,0 -0.02,0 -0.02,0 -0.01,-0.01 -0.02,0 -0.02,0 -0.02,0 -0.03,0 -0.02,0 -0.02,0 -0.03,0 -0.02,0 -0.02,0 c -0.13,0 -0.22,0 -0.22,-0.15 0,-0.1 0.09,-0.1 0.22,-0.1 l 2.49,0 -0.12,0.25 -0.95,0 c -0.22,0 -0.23,0.01 -0.23,0.07 0,0.01 0,0.04 0.03,0.15 l 0.96,3.79 c 0.05,0.22 0.06,0.24 0.35,0.24 l 0.9,0 c 0.78,0 1.44,-0.39 1.44,-1.34 0,-0.15 -0.07,-1.36 -0.77,-2.15 -0.27,-0.31 -0.87,-0.76 -1.73,-0.76 l 0.12,-0.25 c 1.55,0 3.04,1.42 3.04,2.94 0,1.01 -0.7,1.81 -1.84,1.81 l -2.55,0 c -0.14,0 -0.22,0 -0.22,-0.15 0,-0.1 0.08,-0.1 0.23,-0.1 0.11,0 0.14,0 0.27,-0.01 0.13,-0.02 0.15,-0.03 0.15,-0.1 0,-0.01 0,-0.05 -0.03,-0.15 z"
         id="path7996"
         inkscape:connector-curvature="0"
         style="fill:#000000;stroke-width:0" /></g>    <g
       style="font-style:normal;font-variant:normal;font-weight:normal;font-stretch:normal;letter-spacing:normal;word-spacing:normal;text-anchor:start;fill:none;fill-opacity:1;fill-rule:evenodd;stroke:#000000;stroke-linecap:butt;stroke-linejoin:miter;stroke-miterlimit:10.43299961;stroke-dasharray:none;stroke-dashoffset:0;stroke-opacity:1"
       ns0:preamble=""
       ns0:text="$\\Gamma_N$"
       word-spacing="normal"
       letter-spacing="normal"
       font-size-adjust="none"
       font-stretch="normal"
       font-weight="normal"
       font-variant="normal"
       font-style="normal"
       stroke-miterlimit="10.433"
       xml:space="preserve"
       transform="matrix(1,0,0,-1,-40.51172,1057.2585)"
       id="g8105"><path
         id="path8107"
         d="m 228.96,713.88 -5.2,0 0,-0.31 0.24,0 c 0.77,0 0.79,-0.11 0.79,-0.47 l 0,-5.2 c 0,-0.36 -0.02,-0.47 -0.79,-0.47 l -0.24,0 0,-0.31 c 0.35,0.04 1.13,0.04 1.52,0.04 0.41,0 1.31,0 1.67,-0.04 l 0,0.31 -0.33,0 c -0.94,0 -0.94,0.13 -0.94,0.48 l 0,5.26 c 0,0.33 0.02,0.4 0.48,0.4 l 1.03,0 c 1.43,0 1.64,-0.58 1.8,-1.92 l 0.25,0 z"
         inkscape:connector-curvature="0"
         style="fill:#000000;stroke-width:0" /><path
         id="path8109"
         d="m 235.49,709.62 0.01,0.05 0.02,0.05 0.01,0.02 0.01,0.03 0.01,0.02 0.01,0.02 0.01,0.02 0.01,0.02 0.01,0.03 0.02,0.02 0.01,0.02 0.02,0.01 0.02,0.02 0.02,0.02 0.02,0.02 0.02,0.01 0.02,0.02 0.03,0.01 0.03,0.02 0.03,0.01 0.03,0.01 0.03,0.01 0.03,0.01 0.04,0.01 0.04,0.01 0.04,0.01 0.05,0 0.02,0 0.02,0 0.03,0.01 0.02,0 0.03,0 0.02,0 c 0.04,0 0.14,0.01 0.14,0.15 0,0.05 -0.03,0.1 -0.1,0.1 -0.23,0 -0.49,-0.03 -0.73,-0.03 -0.17,0 -0.57,0.03 -0.74,0.03 -0.04,0 -0.14,0 -0.14,-0.15 0,-0.09 0.09,-0.1 0.15,-0.1 0.33,-0.01 0.45,-0.11 0.45,-0.29 0,-0.05 -0.01,-0.08 -0.03,-0.16 l -0.76,-3.03 -1.78,3.61 c -0.05,0.12 -0.07,0.12 -0.23,0.12 l -0.96,0 c -0.13,0 -0.23,0 -0.23,-0.15 0,-0.1 0.09,-0.1 0.24,-0.1 0.14,0 0.3,-0.01 0.44,-0.04 l -0.94,-3.71 c -0.06,-0.27 -0.18,-0.48 -0.72,-0.5 -0.05,0 -0.15,-0.01 -0.15,-0.15 0,-0.07 0.06,-0.1 0.11,-0.1 0.23,0 0.49,0.03 0.72,0.03 0.17,0 0.58,-0.03 0.74,-0.03 0.08,0 0.14,0.04 0.14,0.15 0,0.09 -0.08,0.1 -0.16,0.1 -0.44,0.02 -0.44,0.2 -0.44,0.29 0,0.03 0,0.07 0.03,0.18 l 0.9,3.56 2.04,-4.16 c 0.05,-0.11 0.08,-0.12 0.15,-0.12 0.11,0 0.11,0.02 0.15,0.15 z"
         inkscape:connector-curvature="0"
         style="fill:#000000;stroke-width:0" /></g>  </g>
</svg>
